<svg width="306" height="100" viewBox="0 0 306 100" fill="none" xmlns="http://www.w3.org/2000/svg">
<path d="M137.484 88.5938C133.422 89.5312 129.203 90 124.828 90C107.328 90 98.5781 81.4844 98.5781 64.4531C98.5781 48.6719 107.328 40.7812 124.828 40.7812C129.203 40.7812 133.422 41.25 137.484 42.1875V52.0312C133.422 51.0938 129.516 50.625 125.766 50.625C115.922 50.625 111 55.2344 111 64.4531C111 74.9219 115.922 80.1562 125.766 80.1562C129.516 80.1562 133.422 79.6875 137.484 78.75V88.5938ZM143.344 74.6719C143.344 64.8906 150.469 60 164.719 60C168.062 60 171.406 60.3125 174.75 60.9375V57.2344C174.75 52.8281 171.578 50.625 165.234 50.625C159.859 50.625 153.891 51.4062 147.328 52.9688V43.125C153.891 41.5625 159.859 40.7812 165.234 40.7812C179.859 40.7812 187.172 46.1875 187.172 57V90H179.953L175.547 85.5938C171.266 88.5312 166.547 90 161.391 90C149.359 90 143.344 84.8906 143.344 74.6719ZM174.75 69.375C171.625 68.75 168.281 68.4375 164.719 68.4375C158.75 68.4375 155.766 70.4688 155.766 74.5312C155.766 78.9062 158.266 81.0938 163.266 81.0938C167.391 81.0938 171.219 79.8125 174.75 77.25V69.375ZM198.938 87.6562V77.3438C204.406 79.5312 210.719 80.625 217.875 80.625C223.219 80.625 225.891 78.9062 225.891 75.4688C225.891 72.1875 224.094 70.5469 220.5 70.5469H211.594C201.594 70.5469 196.594 65.625 196.594 55.7812C196.594 45.4688 203.891 40.3125 218.484 40.3125C224.672 40.3125 230.5 41.25 235.969 43.125V53.4375C230.5 51.25 224.562 50.1562 218.156 50.1562C211.438 50.1562 208.078 51.875 208.078 55.3125C208.078 58.5938 210.031 60.2344 213.938 60.2344H221.906C232.844 60.2344 238.312 65.1562 238.312 75C238.312 85.3125 231.344 90.4688 217.406 90.4688C210.562 90.4688 204.406 89.5312 198.938 87.6562ZM247.031 90V22.9688H259.453V47.0625C263.328 42.875 268.281 40.7812 274.312 40.7812C285.969 40.7812 291.797 46.8438 291.797 58.9688V90H279.375V58.9688C279.375 53.5312 276.672 50.8125 271.266 50.8125C267.234 50.8125 263.297 52.4219 259.453 55.6406V90H247.031Z" fill="white"/>
<path fill-rule="evenodd" clip-rule="evenodd" d="M49.0548 10L49.0357 23.9998C52.9601 24.0052 56.8324 24.8988 60.3622 26.6138L66.4802 14.0215C74.5406 17.9374 81.0766 24.4608 85.0024 32.5691L72.4016 38.6699C69.6173 32.9192 64.8131 28.3951 58.9058 25.9609C52.9984 23.5267 46.4016 23.3529 40.3742 25.4726C34.3469 27.5923 29.3111 31.8571 26.2278 37.4531C23.1446 43.0492 22.2298 49.5846 23.6581 55.8121C25.0863 62.0396 28.7576 67.5232 33.9713 71.2164C39.185 74.9096 45.5761 76.5537 51.9247 75.835C58.2734 75.1163 64.1352 72.0851 68.3913 67.3199C72.6475 62.5547 75.0001 56.3892 75.0001 50H89.0001C89.0001 59.8296 85.3807 69.315 78.8328 76.646C72.2848 83.9771 63.2667 88.6404 53.4995 89.7461C43.7323 90.8518 33.9 88.3224 25.8789 82.6406C17.8578 76.9588 12.2097 68.5225 10.0123 58.9417C7.815 49.3609 9.22236 39.3064 13.9658 30.6971C18.7093 22.0879 26.4567 15.5266 35.7296 12.2655C40.0466 10.7473 44.5535 9.99383 49.0548 10Z" fill="#FF9500"/>
</svg>
