<svg width="110" height="110" viewBox="0 0 110 110" fill="none" xmlns="http://www.w3.org/2000/svg">
<path fill-rule="evenodd" clip-rule="evenodd" d="M55.0754 5.20072e-05L55.049 19.2497C60.4451 19.2571 65.7695 20.4859 70.623 22.844L79.0352 5.5296C90.1183 10.9139 99.1053 19.8836 104.503 31.0325L87.1771 39.4211C83.3488 31.514 76.743 25.2933 68.6204 21.9463C60.4978 18.5992 51.4272 18.3602 43.1396 21.2748C34.852 24.1894 27.9277 30.0535 23.6882 37.7481C19.4488 45.4426 18.1909 54.4288 20.1548 62.9917C22.1187 71.5545 27.1667 79.0945 34.3356 84.1726C41.5044 89.2507 50.2921 91.5113 59.0215 90.5231C67.7509 89.5349 75.8108 85.367 81.6631 78.8149C87.5153 72.2628 90.7501 63.7852 90.7501 55H110C110 68.5157 105.023 81.5581 96.02 91.6383C87.0166 101.719 74.6167 108.131 61.1868 109.651C47.7569 111.171 34.2375 107.693 23.2085 99.8809C12.1795 92.0684 4.41327 80.4685 1.39194 67.2949C-1.6294 54.1213 0.305721 40.2964 6.82798 28.4586C13.3502 16.6208 24.003 7.59906 36.7531 3.11506C42.689 1.02752 48.886 -0.00845848 55.0754 5.20072e-05Z" fill="#FF9500"/>
</svg>
